<?xml version="1.0" standalone="no"?>
<!DOCTYPE svg PUBLIC "-//W3C//DTD SVG 20010904//EN"
 "http://www.w3.org/TR/2001/REC-SVG-20010904/DTD/svg10.dtd">
<svg version="1.0" xmlns="http://www.w3.org/2000/svg"
 width="700.000000pt" height="700.000000pt" viewBox="0 0 700.000000 700.000000"
 preserveAspectRatio="xMidYMid meet">
<metadata>
Created by potrace 1.11, written by Peter Selinger 2001-2013
</metadata>
<g transform="translate(0.000000,700.000000) scale(0.100000,-0.100000)"
fill="#000000" stroke="none">
<path d="M727 5123 c-4 -3 -7 -15 -7 -26 0 -15 258 -909 325 -1127 8 -25 39
-128 69 -230 30 -102 163 -556 296 -1010 134 -454 247 -833 252 -843 13 -26
33 -21 101 26 204 143 467 327 712 498 154 108 489 342 745 521 256 178 576
402 713 497 136 95 245 177 241 182 -3 5 -25 71 -49 146 -56 179 -96 303 -255
798 -73 226 -143 447 -158 493 l-25 82 -1477 0 c-812 0 -1480 -3 -1483 -7z"/>
<path d="M4250 5123 c0 -5 13 -48 29 -98 39 -122 193 -598 283 -878 l73 -227
340 237 c187 130 418 291 513 357 94 67 312 218 482 336 298 206 310 216 308
245 l-3 30 -1012 3 c-557 1 -1013 -1 -1013 -5z"/>
</g>
</svg>
