<svg width="740" height="5829.6" xmlns="http://www.w3.org/2000/svg" xmlns:xlink="http://www.w3.org/1999/xlink"><defs><symbol viewBox="0 0 16 16" id="arrow-down"><path d="m11.035 8.877-3.168 3.157-3.168-3.157.77-.737 1.837 1.859V4.3h1.089v5.73l1.859-1.891.78.737Z" /></symbol><symbol viewBox="0 0 16 16" id="arrow-external"><path d="m6.369 5 4.472.008.008 4.472-1.065-.023.015-2.614-4.029 4.03-.77-.77L9.052 6.05 6.4 6.073 6.37 5Z" /></symbol><symbol viewBox="0 0 16 16" id="arrow-left"><path d="M7.157 5 4 8.168l3.157 3.168.737-.77-1.859-1.837h5.698V7.64H6.002l1.892-1.859L7.157 5Z" /></symbol><symbol viewBox="0 0 16 16" id="arrow-right"><path d="m8.576 5 3.157 3.168-3.157 3.168-.737-.77 1.859-1.837H4V7.64h5.731L7.839 5.781 8.576 5Z" /></symbol><symbol viewBox="0 0 16 16" id="arrow-up"><path d="M4.699 7.458 7.867 4.3l3.168 3.157-.77.737-1.837-1.86v5.699h-1.09V6.303L5.48 8.195l-.781-.737Z" /></symbol><symbol viewBox="0 0 22 22" id="chat"><path d="M3.5 19.5c-.1 0-.3 0-.4-.1-.4-.2-.6-.5-.6-.9V5.2a2.732 2.732 0 0 1 2.7-2.7h11.7a2.732 2.732 0 0 1 2.7 2.7v8.3a2.732 2.732 0 0 1-2.7 2.7H7.2l-3 3c-.2.2-.4.3-.7.3zm1.7-15c-.2 0-.4.1-.5.2s-.2.3-.2.5v10.9l1.6-1.6c.2-.2.4-.3.7-.3h10c.2 0 .3-.1.5-.2s.2-.3.2-.5V5.2c0-.2-.1-.3-.2-.5-.1-.1-.3-.2-.5-.2H5.2z" /></symbol><symbol viewBox="0 0 16 16" id="chevron-down"><path d="M5 5.8c.2 0 .4.1.5.2L8 8.4 10.5 6c.3-.3.8-.3 1.1 0s.3.8 0 1.1l-3 3c-.3.3-.8.3-1.1 0l-3-3c-.3-.4-.3-.8 0-1.1.1-.2.3-.2.5-.2z" /></symbol><symbol viewBox="0 0 16 16" id="chevron-left"><path d="M10.2 5c0 .2-.1.4-.2.5L7.6 8l2.5 2.5c.3.3.3.8 0 1.1s-.8.3-1.1 0l-3-3c-.3-.4-.3-.8 0-1.1l3-3c.3-.3.8-.3 1.1 0 .1.1.1.3.1.5z" /></symbol><symbol viewBox="0 0 16 16" id="chevron-right"><path d="M5.8 11c0-.2.1-.4.2-.5L8.4 8 6 5.5c-.3-.3-.3-.7 0-1s.8-.3 1.1 0l3 3c.3.3.3.8 0 1.1l-3 3c-.3.3-.8.3-1.1 0-.2-.2-.2-.4-.2-.6z" /></symbol><symbol viewBox="0 0 16 16" id="chevron-up"><path d="M11 10.2c-.2 0-.4-.1-.5-.2L8 7.6 5.5 10c-.3.3-.8.3-1.1 0s-.2-.7.1-1l3-3c.3-.3.8-.3 1.1 0l3 3c.3.3.3.8 0 1.1-.2.1-.4.1-.6.1z" /></symbol><symbol viewBox="0 0 22 22" id="close"><path d="m12.3 11 5.1-5.1c.4-.4.4-1 0-1.4s-1-.4-1.4 0l-5.1 5.1-4.8-4.8c-.4-.4-1-.4-1.4 0s-.4 1 0 1.4L9.4 11l-4.8 4.8c-.4.4-.4 1 0 1.4.2.2.5.3.7.3s.5-.1.7-.3l4.8-4.8 5.1 5.1c.2.2.5.3.7.3s.5-.1.7-.3c.4-.4.4-1 0-1.4l-5-5.1z" /></symbol><symbol viewBox="0 0 56 58" id="decagon"><path d="m28 1 16.7 5.3 10.3 14v17.3l-10.3 14L28 57l-16.7-5.3L1 37.7V20.3l10.3-14L28 1z" /></symbol><symbol viewBox="0 0 22 22" id="facebook"><path d="M15.031 12h-2.344v7H9.563v-7H7V9.125h2.563V6.906c0-2.5 1.5-3.906 3.78-3.906 1.095 0 2.25.219 2.25.219v2.469h-1.28c-1.25 0-1.626.75-1.626 1.562v1.875h2.782L15.03 12Z" /></symbol><symbol viewBox="0 0 400 400" id="illu-placeholder">

<path d="M235.801 264.924C235.599 267.128 234.659 268.842 234.838 270.779C234.905 271.536 234.3 271.848 233.763 272.093C233.27 272.315 232.688 272.382 232.128 272.315C229.014 271.959 225.946 272.315 222.855 272.805C221.556 273.006 220.256 273.184 218.935 272.627C218.061 272.271 217.681 271.692 217.748 270.868C217.882 269.488 217.546 268.219 217.076 266.972C216.314 264.857 216.337 262.608 215.866 260.449C215.306 257.844 214.612 255.283 214.007 252.701C212.843 247.669 211.297 242.771 209.908 237.806C209.841 237.539 209.796 237.272 209.46 237.071C208.564 239.053 208.049 241.168 207.713 243.261C207.221 246.444 206.123 249.495 205.563 252.656C204.757 257.243 203.637 261.762 203.682 266.46C203.682 267.818 202.875 268.575 201.554 268.263C198.843 267.64 196.133 268.107 193.423 268.107C192.639 268.107 191.878 268.107 191.094 268.152C189.167 268.219 187.823 267.373 187.129 265.436C185.942 266.46 184.777 267.395 183.702 268.419C182.963 269.132 182.224 269.421 181.171 269.287C175.079 268.486 168.986 269.265 162.916 269.399C160.811 269.443 158.705 269.399 156.6 269.221C154.651 269.043 153.195 267.017 154.427 264.857C155.861 262.341 157.563 260.048 159.176 257.688C159.96 256.552 161.124 255.773 162.132 254.816C163.79 253.235 165.604 251.899 167.687 250.986C168.516 250.63 169.21 250.051 170.017 249.717C171.585 249.072 171.898 247.914 172.077 246.355C172.704 240.789 173.309 235.223 174.519 229.769C174.967 227.765 174.922 227.743 172.951 227.587C167.575 227.164 162.177 227.32 156.802 226.896C152.165 226.518 147.529 226.117 142.937 225.249C140.54 224.804 138.076 224.759 135.68 224.247C135.097 224.113 134.47 224.136 133.888 224.425C133.171 224.781 132.499 224.692 131.827 224.269C131.693 224.18 131.514 224.158 131.379 224.047C130.618 223.446 129.475 223.334 129.139 222.199C128.848 221.219 129.027 220.373 129.543 219.505C129.722 219.215 129.632 218.748 129.632 218.369C129.722 212.492 129.923 206.614 130.304 200.736C130.461 198.309 130.909 195.905 131.043 193.456C131.469 185.463 131.581 177.47 130.976 169.499C130.752 166.472 130.058 163.488 129.229 160.549C128.96 159.614 129.296 159.035 130.17 159.147C132.992 159.547 135.702 158.79 138.435 158.545C141.212 158.278 143.967 158.256 146.745 158.256C153.128 158.212 159.557 158.857 165.895 157.9C179.514 155.874 178.237 157.165 178.752 161.573C179.245 166.049 179.536 170.524 179.693 175.021C179.76 177.359 179.805 179.674 179.827 182.012C179.827 183.236 179.894 183.236 181.149 183.348C184.419 183.659 187.689 183.415 190.959 183.303C198.06 183.081 205.16 182.88 212.26 183.081C212.529 183.081 212.82 183.103 213.089 183.103C214.702 183.081 214.679 183.058 214.724 181.433C214.814 177.871 214.522 174.331 214.03 170.813C213.806 169.165 213.313 167.562 213.067 165.937C212.619 162.82 211.611 159.792 211.297 156.631C211.185 155.584 211.095 155.518 210.065 155.607C209.012 155.696 207.96 155.762 206.929 155.963C204.622 156.43 202.405 156.03 200.165 155.562C198.149 155.139 196.156 154.872 194.14 155.718C192.93 156.23 191.094 154.226 191.385 152.824C192.012 149.84 192.438 146.812 193.445 143.94C194.185 141.803 194.117 139.665 193.826 137.528C193.513 135.235 193.535 132.875 192.639 130.671C192.281 129.758 192.841 129.045 193.893 128.979C194.834 128.912 195.775 128.979 196.716 129.023C200.053 129.112 203.368 128.801 206.705 128.711C208.318 128.667 209.931 128.711 211.521 128.823C216.09 129.112 220.615 128.734 225.117 127.91C226.707 127.621 228.297 127.42 229.888 127.175C231.612 126.908 233.315 126.93 235.017 127.353C236.451 127.687 237.884 127.621 239.318 127.643C240.885 127.665 241.378 128.044 241.781 129.558C242.476 132.207 242.52 134.923 242.677 137.639C242.7 138.129 242.677 138.641 242.677 139.131C242.632 139.888 242.924 140.244 243.73 140.222C248.053 140.155 252.398 140.111 256.721 140.044C256.766 140.044 256.833 140.044 256.878 140.044C259.387 139.131 261.895 139.665 264.381 140.133C265.165 140.289 265.86 140.311 266.711 139.821C268.234 138.908 270.474 140.289 270.451 141.981C270.362 148.259 270.81 154.516 270.272 160.794C269.421 170.813 269.421 180.854 269.152 190.895C268.884 199.935 268.57 208.974 268.256 218.013C268.256 218.57 268.256 219.126 268.256 219.683C268.256 220.484 268.324 221.13 269.287 221.486C269.891 221.709 270.317 222.444 270.787 223C271.191 223.468 270.944 223.913 270.675 224.358C270.227 225.093 269.735 225.828 268.772 225.716C266.935 225.494 265.121 225.694 263.284 225.806C258.199 226.184 253.093 226.563 248.008 226.919C245.947 227.052 243.909 227.141 241.849 227.275C240.594 227.364 240.37 227.743 240.885 228.833C241.154 229.39 241.445 229.924 241.804 230.414C244.044 233.553 245.634 236.982 246.955 240.589C247.941 243.35 249.083 246.044 250.158 248.782C250.27 249.094 250.382 249.406 250.494 249.717C250.927 251.157 251.898 251.788 253.406 251.61C253.63 251.587 253.854 251.61 254.078 251.543C257.572 250.385 260.372 251.966 262.948 254.014C265.3 255.884 266.263 258.512 266.285 261.495C266.285 262.764 266.285 264.055 266.308 265.324C266.308 265.703 266.263 266.126 266.375 266.482C266.599 267.128 266.868 267.729 266.218 268.286C265.569 268.864 264.874 269.221 263.956 269.02C262.881 268.775 261.761 268.62 260.663 268.864C259.364 269.154 258.065 269.399 256.766 269.733C255.691 270.022 254.616 270.178 253.496 270.267C250.226 270.49 246.955 270.824 243.685 271.002C242.386 271.069 241.02 271.269 239.833 270.378C239.385 270.044 239.049 269.733 238.825 269.154C238.242 267.573 237.234 266.304 235.711 264.968M266.263 143.339C265.188 143.628 264.225 143.562 263.217 143.384C261.626 143.139 260.014 143.183 258.401 143.295C255.96 143.495 253.541 143.606 251.099 143.74C247.986 143.896 244.872 143.718 241.781 144.118C239.922 144.363 238.466 143.139 238.623 141.313C238.802 139.198 238.758 137.105 238.69 134.99C238.668 134.099 238.578 133.209 238.466 132.341C238.399 131.851 238.265 131.339 237.615 131.272C234.927 130.982 232.284 130.404 229.507 130.916C224.983 131.739 220.413 132.452 215.777 132.296C210.177 132.118 204.555 132.162 198.955 132.43C196.85 132.541 196.783 132.496 197.231 134.5C197.656 136.415 197.746 138.352 197.925 140.267C198.104 142.159 197.88 144.007 197.298 145.833C196.805 147.413 196.402 149.039 196.268 150.708C196.2 151.51 196.447 151.755 197.231 151.822C198.664 151.955 200.098 152.133 201.487 152.467C202.763 152.779 204.018 152.957 205.272 152.712C207.288 152.312 209.348 152.267 211.319 151.599C211.678 151.465 212.081 151.488 212.484 151.51C214.007 151.555 214.903 152.467 214.97 154.004C214.993 154.716 214.993 155.451 215.105 156.163C215.642 160.059 216.314 163.933 217.188 167.763C218.196 172.171 218.599 176.624 218.621 181.144C218.621 182.145 218.666 183.125 218.957 184.105C219.383 185.619 218.689 186.42 217.098 186.398C215.598 186.398 214.097 186.287 212.596 186.264C208.385 186.264 204.152 186.198 199.941 186.331C194.946 186.465 189.974 186.91 184.956 186.955C182.851 186.955 180.746 186.91 178.618 186.843C177.117 186.799 175.639 185.285 176.019 184.038C176.355 182.925 176.243 181.834 176.311 180.743C176.647 174.464 176.221 168.208 175.683 161.952C175.616 161.106 175.303 160.794 174.452 160.839C172.839 160.95 171.226 160.928 169.636 161.039C166.59 161.262 163.566 161.707 160.52 161.752C154.629 161.841 148.761 161.752 142.87 161.685C140.025 161.662 137.225 162.197 134.426 162.486C133.933 162.531 133.754 162.798 133.821 163.265C133.866 163.533 133.91 163.822 133.955 164.089C134.515 166.761 135.165 169.433 135.187 172.127C135.299 180.097 135.837 188.09 134.918 196.083C134.067 203.586 133.888 211.133 133.933 218.681C133.933 220.284 133.955 220.195 135.568 220.484C138.345 220.996 141.19 221.13 143.99 221.575C146.117 221.909 148.268 222.288 150.418 222.488C160.587 223.468 170.823 223.49 181.014 223.779C188.339 223.98 195.663 223.779 202.987 224.091C213.47 224.536 223.975 223.958 234.457 223.624C239.34 223.468 244.2 223.089 249.083 222.8C253.742 222.533 258.379 221.954 263.038 221.798C263.373 221.798 263.709 221.753 264.023 221.664C264.225 221.62 264.493 221.531 264.404 221.241C263.933 219.861 264.561 218.525 264.561 217.145C264.605 213.204 265.031 209.286 264.986 205.322C264.964 203.052 264.852 200.758 265.076 198.51C265.569 193.745 265.457 188.981 265.457 184.216C265.457 179.719 265.725 175.244 265.882 170.746C266.039 166.36 266.42 161.996 266.599 157.633C266.688 155.762 266.935 153.87 266.688 151.978C266.42 150.041 266.464 148.104 266.42 146.167C266.397 145.276 266.509 144.385 266.24 143.339M224.826 227.72C221.264 227.809 217.725 228.143 214.164 228.255C212.708 228.299 212.529 228.499 212.731 229.969C213.044 232.218 213.425 234.466 213.828 236.693C214.03 237.784 214.209 238.897 214.567 239.921C215.866 243.639 216.762 247.469 217.725 251.276C218.397 253.903 219.002 256.552 219.674 259.18C220.436 262.185 220.682 265.28 221.668 268.241C222.048 269.399 221.936 269.532 223.146 269.399C225.027 269.176 226.909 269.043 228.79 269.065C230.582 269.087 230.717 269.377 231.321 267.017C231.859 264.968 232.307 262.898 232.06 260.76C231.971 260.026 232.24 259.447 232.822 259.024C233.539 258.512 235.823 258.801 236.361 259.558C238.22 262.185 240.863 264.144 242.498 266.95C242.901 267.618 243.528 267.885 244.335 267.796C245.499 267.662 246.642 267.551 247.807 267.462C250.965 267.239 254.123 267.172 257.236 266.415C258.692 266.059 260.148 265.681 261.649 265.614C262.343 265.614 262.478 265.213 262.455 264.656C262.455 263.432 262.522 262.207 262.433 260.983C262.343 259.603 262.164 258.089 261.29 257.042C259.879 255.328 258.043 254.237 255.646 254.415C253.809 254.549 252.017 254.927 250.203 255.15C248.814 255.328 248.255 255.061 247.695 253.747C247.538 253.391 247.493 253.012 247.403 252.634C247.045 251.298 246.911 249.918 246.395 248.626C245.052 245.242 243.797 241.791 242.364 238.452C241.356 236.114 240.325 233.798 238.69 231.772C237.929 230.837 236.921 229.902 236.607 228.811C236.271 227.631 235.667 227.698 234.815 227.72C231.478 227.72 228.141 227.72 224.826 227.72ZM159.086 265.458C160.475 265.458 161.528 265.48 162.558 265.458C168.202 265.235 173.869 265.08 179.536 265.213C180.275 265.213 181.014 265.213 181.597 264.723C183.389 263.254 185.382 262.052 186.883 260.204C187.868 258.979 189.011 258.912 190.422 259.625C191.116 259.981 191.385 260.426 191.318 261.206C191.25 261.985 191.318 262.764 191.318 263.521C191.318 264.078 191.542 264.323 192.102 264.323C194.274 264.323 196.424 264.345 198.597 264.367C199.135 264.367 199.403 264.144 199.471 263.588C199.605 262.608 199.762 261.606 199.963 260.627C200.434 258.467 201.106 256.33 201.352 254.126C201.845 249.695 203.278 245.487 204.107 241.123C204.689 238.029 205.697 235.001 206.235 231.906C206.481 230.503 206.683 229.123 208.296 228.566C208.027 228.143 207.736 228.21 207.467 228.188C203.816 228.054 200.143 227.876 196.492 227.809C192.281 227.743 188.047 227.787 183.837 227.765C182.448 227.765 181.059 227.743 179.67 227.72C179.088 227.72 178.752 227.898 178.73 228.566C178.618 230.459 178.192 232.284 177.879 234.132C177.027 239.209 176.221 244.307 176.154 249.472C176.154 250.853 175.571 251.699 174.228 252.211C171.921 253.101 169.994 254.816 167.62 255.64C164.35 258.311 161.438 261.295 159.131 265.391" />
<path d="M214.522 212.781C213.156 213.872 211.723 214.607 210.155 215.208C207.108 216.388 204.062 216.166 200.971 215.542C199.941 215.342 198.911 215.097 197.97 214.585C197.365 214.273 196.85 214.318 196.312 214.83C194.924 216.21 193.109 216.989 191.474 218.013C190.063 218.904 188.249 217.791 188.092 216.143C188.025 215.453 188.451 215.141 188.988 214.919C190.153 214.429 191.295 213.872 192.348 213.138C192.751 212.848 193.154 212.559 193.513 212.203C194.073 211.668 195.327 209.642 194.095 207.238C193.535 206.748 192.908 206.213 192.572 205.434C192.303 204.833 192.213 204.232 192.684 203.72C193.199 203.163 193.781 203.408 194.364 203.675C195.73 204.321 196.738 205.345 197.343 206.681C197.858 207.772 198.373 208.952 198.306 210.176C198.239 211.267 198.888 211.735 199.672 211.98C204.309 213.405 208.632 212.96 212.439 209.62C213.089 209.063 213.47 208.173 214.478 208.017C214.836 207.972 214.948 207.572 215.038 207.238C215.441 205.835 216.269 204.655 217.031 203.43C217.725 202.317 218.285 202.184 219.316 202.874C220.279 203.519 220.592 204.588 219.92 205.412C219.114 206.436 218.599 207.572 218.106 208.752C217.233 210.933 217.793 213.004 218.42 215.097C218.532 215.475 218.89 215.676 219.181 215.943C220.01 216.655 220.256 217.991 219.719 218.592C219.024 219.327 217.815 219.26 216.874 218.392C215.799 217.368 215.217 216.077 214.903 214.652C214.791 214.073 214.858 213.449 214.478 212.781" />
<path d="M204.264 199.4C206.212 199.267 206.817 199.89 207.243 201.07C207.511 201.805 206.75 202.94 205.764 203.43C204.622 204.009 203.054 203.697 202.315 202.718C202.091 202.406 201.912 202.072 201.733 201.716C201.285 200.847 201.553 200.068 202.427 199.667C203.054 199.378 203.726 199.4 204.264 199.4Z" />
<path d="M211.028 196.64C210.065 196.64 208.99 195.616 208.945 194.636C208.9 193.679 209.662 193.055 210.827 193.055C212.103 193.055 213.179 194.035 213.134 195.148C213.089 195.905 212.081 196.64 211.028 196.618" />
<path d="M195.327 197.285C194.364 197.285 193.289 196.261 193.244 195.282C193.199 194.324 193.961 193.701 195.125 193.701C196.402 193.701 197.477 194.68 197.41 195.794C197.388 196.551 196.357 197.285 195.305 197.263" />
</symbol><symbol viewBox="0 0 358 151" id="impact-ia">
    <path fill="#fff" d="M15.2 0H.4C.2 0 0 .2 0 .4v11.5c0 .2.2.4.4.4h14.8c.2 0 .4-.2.4-.4V.4c0-.2-.2-.4-.4-.4zm0 17.6H.4c-.2 0-.4.2-.4.4v51.3c0 .2.2.4.4.4h14.8c.2 0 .4-.2.4-.4V18c0-.2-.2-.4-.4-.4zm94.9 1.6c-2.9-1.8-6.7-2.7-11.2-2.7s-8.1.9-10.9 2.5c-2.8 1.6-4.9 3.7-6.3 6.3-1.4 2.5-2.3 5.1-2.7 8 0 .2-.2.3-.4.3h-.3c-.2 0-.4-.2-.4-.3-.3-2.3-.9-4.4-1.8-6.4-1.4-3.1-3.5-5.6-6.4-7.5-2.9-1.9-6.6-2.8-11.1-2.8s-7.9.8-10.6 2.4c-2.7 1.6-4.8 3.7-6.1 6.2-1.3 2.4-2.3 5.1-2.8 7.8 0 .2-.2.3-.4.3h-.1c-.2 0-.4-.2-.4-.4V18c0-.2-.2-.4-.4-.4H24.2c-.2 0-.4.2-.4.4v51.3c0 .2.2.4.4.4H39c.2 0 .4-.2.4-.4V43.4c0-4.5.8-7.8 2.5-9.8 1.7-2 4.9-3 9.7-3 4.5 0 7.6.9 9.4 2.7 1.7 1.8 2.6 4.8 2.6 9.2v26.8c0 .2.2.4.4.4h14.8c.2 0 .4-.2.4-.4v-26c0-4.5.8-7.8 2.6-9.8 1.7-2 4.9-3 9.6-3s7.6.9 9.4 2.7c1.7 1.8 2.6 4.8 2.6 9.2v26.8c0 .2.2.4.4.4h14.8c.2 0 .4-.2.4-.4v-32c0-4-.7-7.5-2.2-10.6-1.6-3.1-3.8-5.6-6.7-7.4zm66.5.7c-3.7-2.2-8.2-3.3-13.6-3.3-6.1 0-10.9 1.3-14.3 3.9-3.4 2.5-5.5 6.2-6.4 11.1 0 .2-.2.3-.4.3h-.3c-.2 0-.4-.2-.4-.4V18c0-.2-.2-.4-.4-.4h-13.7c-.2 0-.4.2-.4.4v69c0 .2.2.4.4.4H142c.2 0 .4-.2.4-.4V56c0-.2.2-.4.4-.4s.4.1.4.3c.9 4.4 3.1 8 6.3 10.6 3.4 2.7 8.1 4.1 14.1 4.1 5.2 0 9.6-1.1 13.3-3.3s6.4-5.4 8.3-9.4c1.9-4.1 2.9-8.8 2.9-14.3s-1-10.3-2.9-14.4c-2-4-4.9-7.1-8.6-9.3zm-5.9 31.3c-1 1.9-2.6 3.2-4.8 4.1-2.1.8-4.9 1.2-8.3 1.2-3.4 0-6-.4-8.3-1.1s-4-2-5.1-3.8c-1.2-1.8-1.8-4.2-1.8-7.1v-.8c0-4.6 1.3-7.9 3.9-9.8 2.6-1.9 6.4-2.9 11.4-2.9 3.3 0 6.1.4 8.2 1.2 2.1.8 3.7 2.1 4.8 4 1 1.8 1.6 4.4 1.6 7.6s-.6 5.5-1.6 7.4zm65.2-31.9c-3.8-1.9-8.6-2.8-14.4-2.8s-10.6.9-14.8 2.8c-4.2 1.8-7.4 4.4-9.7 7.7-2.3 3.3-3.4 7.1-3.4 11.4v.3h15.7v-.4c0-3 .9-5.1 2.6-6.2 1.7-1.2 4.6-1.8 8.5-1.8 4.2 0 7.1.6 8.8 1.8s2.6 3.5 2.6 6.9v1.6c0 .2-.2.4-.4.4l-22 2.2c-3.7.4-6.9 1.2-9.4 2.3s-4.4 2.7-5.6 4.5-1.9 4.1-1.9 6.8c0 4.3 1.6 7.7 4.8 10.2 3.2 2.5 7.6 3.7 13.2 3.7s10.5-1.2 14.1-3.5c3.5-2.3 5.8-5.3 7-9.2.1-.2.2-.3.4-.3h.1c.2 0 .4.2.4.4v11.2c0 .2.2.4.4.4h13.8c.2 0 .4-.2.4-.4V39.1c0-4.6-.9-8.5-2.8-11.9-1.8-3.4-4.6-6-8.4-7.9zm-11.7 39.4c-2.4.7-5.5 1-9.3 1-2.3 0-4-.3-5.1-.9-1.1-.6-1.7-1.6-1.7-3 0-1.2.4-2.2 1.3-2.8.9-.6 2.2-1 4.1-1.1l17.6-2c.2 0 .5.2.4.4-.2 2-.8 3.7-1.9 5-1.1 1.5-3 2.7-5.4 3.4 0-.1 0 0 0 0zm83.2 1.4c2.4-3.4 3.5-7.3 3.5-11.8v-1c0-.2-.2-.4-.4-.4h-14.7c-.2 0-.4.2-.4.4v.4c0 3.3-1.1 5.7-3.4 7-2.3 1.3-5.5 2-9.6 2-4.6 0-8.1-1-10.2-3-2.2-2-3.3-5.3-3.3-10s1.1-8.2 3.3-10.2c2.2-1.9 5.6-2.9 10.2-2.9 4.1 0 7.3.7 9.6 2s3.4 3.7 3.4 7v.4c0 .2.2.4.4.4h14.7c.2 0 .4-.2.4-.4v-1c0-4.5-1.2-8.4-3.5-11.8-2.4-3.4-5.6-6-9.9-7.9s-9.1-2.8-14.8-2.8c-5.9 0-11.1 1.1-15.5 3.3s-7.9 5.4-10.2 9.4c-2.4 4.1-3.6 8.9-3.6 14.4s1.2 10.2 3.6 14.3c2.4 4.1 5.8 7.2 10.2 9.4 4.4 2.2 9.6 3.3 15.5 3.3s10.5-.9 14.8-2.8 7.5-4.4 9.9-7.7zm14.6-9.3c0 6.6 1.7 11.4 5.2 14.3 3.5 3 8.2 4.5 14.4 4.5H354c.2 0 .4-.2.4-.4V56c0-.2-.2-.4-.4-.4h-9c-2.7 0-4.6-.4-5.8-1.3-1.1-.9-1.7-2.6-1.7-5.2V30.9c0-.2.2-.4.4-.4h16c.2 0 .4-.2.4-.4V18c0-.2-.2-.4-.4-.4h-16c-.2 0-.4-.2-.4-.4V7.9c0-.2-.2-.4-.4-.4h-14.8c-.2 0-.4.2-.4.4v9.3c0 .2-.2.4-.4.4h-7.4c-.2 0-.4.2-.4.4v12.1c0 .2.2.4.4.4h7.4c.2 0 .4.2.4.4v19.9zm-26.1 28.7h-14.8c-.2 0-.4.2-.4.4v11.5c0 .2.2.4.4.4h14.8c.2 0 .4-.2.4-.4V79.9c0-.2-.2-.4-.4-.4zm0 17.6h-14.8c-.2 0-.4.2-.4.4v51.3c0 .2.2.4.4.4h14.8c.2 0 .4-.2.4-.4V97.5c0-.2-.2-.4-.4-.4zm58.5 9.6c-1.8-3.4-4.6-6-8.4-7.8-3.8-1.9-8.6-2.8-14.4-2.8s-10.6.9-14.8 2.8c-4.2 1.8-7.4 4.4-9.7 7.7-2.3 3.3-3.4 7.1-3.4 11.4v.3h15.7v-.4c0-3 .9-5.1 2.6-6.2s4.6-1.8 8.5-1.8c4.2 0 7.1.6 8.8 1.8s2.5 3.5 2.5 6.9v1.6c0 .2-.2.4-.4.4l-22 2.2c-3.7.4-6.9 1.2-9.4 2.3s-4.4 2.7-5.6 4.5-1.9 4.1-1.9 6.8c0 4.3 1.6 7.7 4.8 10.2 3.2 2.5 7.6 3.7 13.2 3.7s10.5-1.2 14.1-3.5c3.5-2.3 5.8-5.3 7-9.2 0-.2.2-.3.4-.3h.1c.2 0 .4.2.4.4v11.2c0 .2.2.4.4.4h13.8c.2 0 .4-.2.4-.4v-30.2c0-4.7-.9-8.6-2.7-12zm-20.2 31.5c-2.4.7-5.5 1-9.3 1-2.3 0-4-.3-5.1-.9-1.1-.6-1.7-1.6-1.7-3 0-1.2.4-2.2 1.3-2.8s2.2-.9 4.1-1.1l17.6-2c.2 0 .5.2.5.4-.2 2-.8 3.7-1.9 5-1.2 1.5-3 2.7-5.5 3.4z" />
    <path fill="#ff2ea9" d="M7.8 99.8c-4.3 0-7.8 3.5-7.8 7.8v26.9c0 4.3 3.5 7.8 7.8 7.8s7.8-3.5 7.8-7.8v-26.9c0-4.3-3.5-7.8-7.8-7.8zm23.1 18v6.6c0 4.3 3.5 7.8 7.8 7.8s7.8-3.5 7.8-7.8v-6.6c0-4.3-3.5-7.8-7.8-7.8s-7.8 3.5-7.8 7.8zm30.9-5.1v16.7c0 4.3 3.5 7.8 7.8 7.8s7.8-3.5 7.8-7.8v-16.7c0-4.3-3.5-7.8-7.8-7.8s-7.8 3.5-7.8 7.8zm30.9 5.1v6.6c0 4.3 3.5 7.8 7.8 7.8s7.8-3.5 7.8-7.8v-6.6c0-4.3-3.5-7.8-7.8-7.8s-7.8 3.5-7.8 7.8zm30.9-14v34.5c0 4.3 3.5 7.8 7.8 7.8s7.8-3.5 7.8-7.8v-34.5c0-4.3-3.5-7.8-7.8-7.8s-7.8 3.5-7.8 7.8zm30.9 8.9v16.7c0 4.3 3.5 7.8 7.8 7.8s7.8-3.5 7.8-7.8v-16.7c0-4.3-3.5-7.8-7.8-7.8s-7.8 3.5-7.8 7.8zm30.9 5.9v5c0 4.3 3.5 7.8 7.8 7.8s7.8-3.5 7.8-7.8v-5c0-4.3-3.5-7.8-7.8-7.8s-7.8 3.4-7.8 7.8zm30.9-5.9v16.7c0 4.3 3.5 7.8 7.8 7.8s7.8-3.5 7.8-7.8v-16.7c0-4.3-3.5-7.8-7.8-7.8s-7.8 3.5-7.8 7.8zm38.7-18c4.3 0 7.8 3.5 7.8 7.8v37.1c0 4.3-3.5 7.8-7.8 7.8s-7.8-3.5-7.8-7.8v-37.1c0-4.3 3.5-7.8 7.8-7.8z" />
</symbol><symbol viewBox="0 0 22 22" id="instagram"><path d="M11.016 7.39c1.968 0 3.593 1.626 3.593 3.594 0 2-1.625 3.594-3.593 3.594-2 0-3.594-1.594-3.594-3.594a3.594 3.594 0 0 1 3.594-3.593Zm0 5.938c1.28 0 2.312-1.031 2.312-2.344a2.307 2.307 0 0 0-2.312-2.312c-1.313 0-2.344 1.031-2.344 2.312a2.34 2.34 0 0 0 2.344 2.344Zm4.562-6.062a.84.84 0 0 1-.844.843.84.84 0 0 1-.843-.843.84.84 0 0 1 .843-.844.84.84 0 0 1 .844.844Zm2.375.843c.063 1.157.063 4.625 0 5.782-.062 1.125-.312 2.093-1.125 2.937-.812.813-1.812 1.063-2.937 1.125-1.157.063-4.625.063-5.782 0-1.125-.062-2.093-.312-2.937-1.125-.813-.844-1.063-1.812-1.125-2.937-.063-1.157-.063-4.625 0-5.782.062-1.125.312-2.125 1.125-2.937.844-.813 1.812-1.063 2.937-1.125 1.157-.063 4.625-.063 5.782 0 1.125.062 2.125.312 2.937 1.125.813.812 1.063 1.812 1.125 2.937Zm-1.5 7c.375-.906.281-3.093.281-4.125 0-1 .094-3.187-.28-4.125-.25-.593-.72-1.093-1.313-1.312-.938-.375-3.125-.281-4.125-.281-1.032 0-3.22-.094-4.125.28A2.41 2.41 0 0 0 5.547 6.86c-.375.938-.281 3.125-.281 4.125 0 1.032-.094 3.22.28 4.125a2.37 2.37 0 0 0 1.345 1.344c.906.375 3.093.281 4.125.281 1 0 3.187.094 4.125-.28.593-.25 1.093-.72 1.312-1.345Z" /></symbol><symbol viewBox="0 0 22 22" id="linkedin">
    <path d="M7.125 17.969H4.219V8.625h2.906v9.344ZM5.656 7.375C4.75 7.375 4 6.594 4 5.656 4 4.75 4.75 4 5.656 4c.938 0 1.688.75 1.688 1.656 0 .938-.75 1.719-1.688 1.719ZM17.97 17.969h-2.875v-4.531c0-1.094-.031-2.47-1.531-2.47s-1.72 1.157-1.72 2.376v4.625H8.939V8.625h2.78v1.281h.032c.406-.718 1.344-1.5 2.75-1.5 2.938 0 3.5 1.938 3.5 4.438v5.125h-.031Z" />
</symbol><symbol viewBox="0 0 90 20" id="logo"><path d="M8.8 15c.1 0 .1 0 0 0l4.1-12.4.1-.1h2.4c.1 0 .1.1.1.2l-4.8 14.8c0 .1-.1.1-.1.1H6.9c-.1 0-.1 0-.1-.1L2 2.7c0-.1 0-.2.1-.2h2.4c.1 0 .1 0 .1.1l4 12.4h.2zm20.6-5c0 2.3-.6 4.2-1.7 5.6-1.1 1.4-2.8 2.1-5 2.1s-3.9-.7-5-2.1C16.6 14.2 16 12.3 16 10s.6-4.2 1.7-5.6c1.1-1.4 2.8-2.1 5-2.1s3.9.7 5 2.1c1.1 1.4 1.7 3.3 1.7 5.6zm-6.7 5.4c1.3 0 2.3-.5 3-1.4.7-.9 1.1-2.3 1.1-3.9 0-1.7-.4-3-1.1-3.9-.7-.9-1.7-1.4-3-1.4s-2.3.5-3 1.4c-.7.8-1 2.2-1 3.8 0 1.7.4 3 1.1 3.9.6 1 1.6 1.5 2.9 1.5zM44.6 10c0 2.3-.6 4.2-1.7 5.6-1.1 1.4-2.8 2.1-5 2.1s-3.8-.7-5-2.1c-1.1-1.4-1.7-3.3-1.7-5.6s.6-4.2 1.7-5.6c1.1-1.4 2.8-2.1 5-2.1s3.8.7 5 2.1c1.1 1.4 1.7 3.3 1.7 5.6zm-6.7 5.4c1.3 0 2.3-.5 3-1.4.8-1 1.1-2.3 1.1-4 0-1.7-.4-3-1.1-3.9-.7-.9-1.7-1.4-3-1.4s-2.3.5-3 1.4c-.7.9-1.1 2.3-1.1 3.9 0 1.7.4 3 1.1 3.9.7 1 1.7 1.5 3 1.5zm20.7-2.3c0 1.3-.4 2.4-1.2 3.2-.8.8-1.9 1.2-3.2 1.2h-7.1c-.1 0-.1 0-.1-.1V2.6c0-.1 0-.1.1-.1h7.1c1.2 0 2.2.4 2.9 1.3.8.9 1.2 1.9 1.2 3.1 0 .6-.2 1.2-.5 1.7-.3.6-.7 1-1.2 1.2-.1 0-.1.1-.1.1s0 .1.1.1c.6.3 1.1.7 1.4 1.3.4.6.6 1.2.6 1.8zm-3.4-4.9c.4-.4.6-.8.6-1.3s-.2-1-.5-1.4c-.3-.5-.8-.7-1.3-.7h-4.4c-.1 0-.1 0-.1.1v3.7c0 .1 0 .1.1.1h4.2c.5 0 1-.2 1.4-.5zm-5.5 7h4.2c.6 0 1.1-.2 1.5-.6.5-.4.7-.9.7-1.4 0-.5-.2-1-.6-1.4-.4-.4-.9-.6-1.4-.6h-4.4c-.1 0-.1 0-.1.1v3.9c0-.1 0 0 .1 0zm20.3-.8h-6c-.1 0-.1 0-.2.1l-.9 2.9c0 .1-.1.1-.1.1h-2.4c-.1 0-.1-.1-.1-.2L65 2.5c0-.1.1-.1.1-.1h3.8c.1 0 .1 0 .1.1l4.7 14.8c0 .1 0 .2-.1.2h-2.5c-.1 0-.1 0-.1-.1l-1-3c.1.1 0 0 0 0zm-5.3-2.3h4.6c.1 0 .1 0 .1-.1l-2.2-7c0-.1-.1-.1-.1-.1-.1 0-.1 0-.1.1l-2.3 7.1c-.2 0-.1 0 0 0zm20.9-9.6h2.3c.1 0 .1 0 .1.1v14.8c0 .1 0 .1-.1.1h-3.2c-.1 0-.1 0-.2-.1L78.8 6.2c0-.1-.1-.2-.1-.1s-.1.1-.1.1v11.2c0 .1 0 .1-.1.1h-2.4c-.1 0-.1 0-.1-.1V2.6c0-.1 0-.1.1-.1h3.2c.1 0 .1 0 .1.1l5.8 11.2c0 .1.1.1.1.1l.1-.1V2.6c0-.1.1-.1.2-.1z" /></symbol><symbol viewBox="0 0 740 520" id="main-dans-la-main">
    <path d="M142.7 384.1c-.3 0-.7 0-1-.1L8.9 345.2c-1.9-.5-2.9-2.5-2.4-4.3l58-198.6c.5-1.9 2.5-2.9 4.3-2.4l132.8 38.8c1.9.5 2.9 2.5 2.4 4.3l-58 198.6c-.4 1.5-1.8 2.5-3.3 2.5zM14.2 339.5l126.1 36.8 56-191.9-126.1-36.8-56 191.9zm630-84.1c-.8 0-1.6-.3-2.2-.8L477 120.5c-1.5-1.2-1.7-3.4-.5-4.9L562.4 7.2c.6-.7 1.4-1.2 2.4-1.3.9-.1 1.9.2 2.6.8l165 134.1c1.5 1.2 1.7 3.4.5 4.9L647 254.1c-.6.7-1.4 1.2-2.4 1.3-.1 0-.3.1-.4 0zM484.1 117.3 643.6 247l81.6-102.9L565.7 14.3l-81.6 103zm-226.7 352c-4.5 0-9-1-13.2-3.1-7.1-3.5-12.3-9.6-14.8-17.1-2.5-7.5-1.9-15.5 1.6-22.5l25.9-51.7c7.3-14.6 25.1-20.5 39.6-13.2 7 3.5 12.3 9.6 14.8 17.1 2.5 7.5 1.9 15.5-1.6 22.5L283.8 453c-5.1 10.3-15.6 16.3-26.4 16.3zm26-103.8c-8.3 0-16.2 4.6-20.2 12.4l-25.9 51.7c-2.7 5.4-3.1 11.5-1.2 17.2s5.9 10.4 11.3 13c11.1 5.6 24.7 1.1 30.3-10l25.9-51.7c2.7-5.4 3.1-11.5 1.2-17.2-1.9-5.7-5.9-10.4-11.3-13-3.1-1.6-6.6-2.4-10.1-2.4zm283.9 4c-4.5 0-9-1-13.2-3.1l-26.5-13.3 3.1-6.3 26.5 13.3c11.1 5.6 24.7 1.1 30.3-10s1.1-24.7-10-30.3c-.1 0-.1-.1-.2-.1l-24.2-14.2 3.5-6 24.1 14.1c14.5 7.3 20.3 25.1 13.1 39.6-5.2 10.3-15.6 16.3-26.5 16.3zm-26.7 43.7c-4.5 0-9-1-13.2-3.1l-20.5-9.6 3-6.3 20.6 9.6c11.2 5.6 24.8 1.1 30.3-10 5.8-11.5 2.3-22.9-8.5-28.4l-24.6-12.3 3.1-6.3 24.6 12.3c14.4 7.2 19.2 22.7 11.7 37.8-5.3 10.3-15.7 16.3-26.5 16.3zm-21.7 48.2c-4.5 0-9-1-13.2-3.1L480 445.4l3.1-6.3 25.8 12.9c11.1 5.6 24.7 1.1 30.3-10s1.1-24.7-10-30.3l-22.3-11.2 3.1-6.3 22.3 11.2c14.6 7.3 20.5 25.1 13.2 39.6-5.3 10.4-15.8 16.3-26.6 16.4zm-37.4 39.5c-4.5 0-9-1-13.2-3.1l-23.2-11.6 3.1-6.3 23.2 11.6c11.1 5.6 24.7 1.1 30.3-10 2.7-5.4 3.1-11.5 1.2-17.2-1.9-5.7-5.9-10.4-11.3-13l-11.7-5.9 3.1-6.3 11.7 5.9c7 3.5 12.3 9.6 14.8 17.1 2.5 7.5 1.9 15.5-1.6 22.5-5.1 10.3-15.5 16.3-26.4 16.3zm-175.2-11.6c-4.5 0-9-1.1-13.2-3.1-7-3.5-12.3-9.6-14.8-17.1-2.5-7.5-1.9-15.5 1.6-22.5l22.9-45.7c3.5-7 9.6-12.3 17.1-14.8 7.5-2.5 15.5-1.9 22.5 1.6 14.6 7.3 20.5 25.1 13.2 39.6L332.7 473c-3.5 7.1-9.6 12.3-17.1 14.8-3 1-6.1 1.5-9.3 1.5zm22.9-97.8c-2.4 0-4.8.4-7.1 1.2-5.7 1.9-10.4 5.9-13 11.3l-22.9 45.7c-2.7 5.4-3.1 11.5-1.2 17.2 1.9 5.7 5.9 10.4 11.3 13 5.4 2.7 11.5 3.1 17.2 1.2 5.7-1.9 10.4-5.9 13-11.3l22.9-45.7c5.6-11.1 1.1-24.7-10-30.3-3.3-1.5-6.7-2.3-10.2-2.3zm33.2 106.7c-4.5 0-9-1-13.2-3.1-7-3.5-12.3-9.6-14.8-17.1-2.5-7.5-1.9-15.5 1.6-22.5l13.3-26.6c7.3-14.6 25.1-20.5 39.6-13.2s20.5 25.1 13.2 39.6l-13.3 26.6c-5.1 10.3-15.5 16.3-26.4 16.3zm-10-9.4c11.1 5.6 24.7 1.1 30.3-10l13.3-26.6c5.6-11.1 1.1-24.7-10-30.3-11.1-5.6-24.7-1.1-30.3 10l-13.3 26.6c-2.7 5.4-3.1 11.5-1.2 17.2 1.8 5.8 5.8 10.4 11.2 13.1zm61.2 25.3c-4.5 0-9-1-13.2-3.1-7.1-3.5-12.3-9.6-14.8-17.1-2.5-7.5-1.9-15.5 1.6-22.5l7.5-15c7.3-14.6 25.1-20.5 39.6-13.2 7.1 3.5 12.3 9.6 14.8 17.1 2.5 7.5 1.9 15.5-1.6 22.5l-7.5 15c-5.1 10.4-15.6 16.3-26.4 16.3zm7.6-67c-8.3 0-16.2 4.6-20.2 12.4l-7.5 15c-2.7 5.4-3.1 11.5-1.2 17.2 1.9 5.7 5.9 10.4 11.3 13 11.1 5.6 24.7 1.1 30.3-10l7.5-15c2.7-5.4 3.1-11.5 1.2-17.2-1.9-5.7-5.9-10.4-11.3-13-3.1-1.6-6.6-2.4-10.1-2.4zM206.5 202c-3.4 0-7.1-.2-10.9-.7l.9-6.9c26.2 3.4 42.4-6.8 58.1-16.7 16-10.1 31-19.5 53.9-12.5l-2.1 6.7c-19.7-6.1-32.9 2.1-48 11.7-13.9 8.7-29.3 18.5-51.9 18.4zM579 320.2c-.6 0-1.2-.2-1.8-.5-1.5-.9-150.9-88.8-175.2-99.8-18.5-8.4-32.9-5.1-43.8 10-6.8 9.4-11.8 21.4-16.7 33.1-8.7 21-17 40.8-34.6 40.8h-.2c-10.7-.1-18.4-5.8-23-16.9-3.7-9-5.4-21.5-5.4-39.3 0-31.8 15-66.2 29.8-86.1 9.8-13.2 26.8-23.2 49.2-29 19.4-5.1 42-6.5 61.9-4 43.7 5.5 57.2 1.5 64.9-6.8l5.1 4.8c-12.5 13.4-35.4 13.5-70.9 9-36.4-4.6-85.4 4.5-104.6 30.3-14.1 19-28.4 51.7-28.5 81.9 0 43.5 11.4 49.1 21.4 49.2h.1c13 0 20-16.9 28.1-36.5 5-12 10.2-24.5 17.5-34.5 12.8-17.7 30.9-21.9 52.3-12.3 23.1 10.4 151.1 85.6 173 98.4l43.8-71.7 6 3.6-45.4 74.6c-.6 1.1-1.7 1.7-3 1.7zm-433.3 49 2.5-6.5 97.5 37.2-2.5 6.5-97.5-37.2z" />
</symbol><symbol viewBox="0 0 23 15" id="menu"><path d="M19.5 11.5h-16c-.6 0-1-.4-1-1s.4-1 1-1h16c.6 0 1 .4 1 1s-.4 1-1 1zm1-7c0-.6-.4-1-1-1h-16c-.6 0-1 .4-1 1s.4 1 1 1h16c.6 0 1-.4 1-1z" /></symbol><symbol viewBox="0 0 28 18" id="monogram"><path d="M25.8 2.1h-8.6l1.6 5.1 7-4.8c.2-.1.1-.3 0-.3zm-11 0H2.2c-.1 0-.1.1-.1.2l4 13.5c0 .1.1.1.2.1l10.6-7.3-2.1-6.5z" /></symbol><symbol viewBox="0 0 40 40" id="nenuphar"><path d="M35 15.5c-3.5 0-6.8 1.1-9.5 3.2-.1-1.7-.5-3.3-1.1-4.9-.8-2-2.1-3.9-3.7-5.4l-.1-.1c-.1 0-.1-.1-.2-.1H19.7c-.1 0-.2.1-.2.1s-.1 0-.1.1c-1.6 1.5-2.8 3.4-3.7 5.4-.6 1.6-1 3.2-1.1 4.9-1-.8-2.2-1.4-3.4-1.9-2-.8-4-1.2-6.1-1.2-.6 0-1 .4-1 1 0 4.3 1.7 8.3 4.7 11.3s7 4.7 11.3 4.7c4.3 0 8.3-1.7 11.3-4.7s4.7-7 4.7-11.3c-.1-.7-.5-1.1-1.1-1.1zm-17.5-1c.6-1.5 1.5-2.9 2.5-4 1.1 1.2 1.9 2.6 2.5 4 .7 1.8 1 3.7.9 5.7v.2C21.9 22 20.8 23.9 20 26c-.1-.2-.1-.4-.2-.6-.8-1.9-1.9-3.5-3.3-5v-.2c-.1-2 .2-3.9 1-5.7zM6.1 17.6c1.5.1 2.9.4 4.3 1 1.7.7 3.2 1.7 4.5 3 1.3 1.3 2.3 2.8 3 4.5.6 1.4.9 2.8 1 4.3-3.3-.2-6.5-1.7-8.8-4-2.4-2.4-3.8-5.5-4-8.8zm23.8 8.8c-2.4 2.4-5.5 3.8-8.8 4 .2-3.3 1.7-6.5 4-8.8 2.4-2.4 5.5-3.8 8.9-4-.3 3.3-1.7 6.4-4.1 8.8z" /></symbol><symbol viewBox="0 0 270 1643.6" id="notch"><path d="M90.5 0H0v1643.6h270V0h-90.5v4c0 2.2-1.8 4-4 4h-81c-2.2 0-4-1.8-4-4V0z" /></symbol><symbol viewBox="0 0 22 22" id="pinterest"><path d="M19.25 9.624c0 2.213-.777 4.24-2.19 5.708-1.324 1.377-3.123 2.167-4.935 2.167-1.448 0-2.51-.392-3.27-.873l-.885 3.756a1.124 1.124 0 1 1-2.19-.516l3-12.75a1.125 1.125 0 1 1 2.19.516l-1.542 6.556c.327.392 1.118 1.061 2.697 1.061 2.396 0 4.875-2.105 4.875-5.625a6.375 6.375 0 1 0-11.898 3.188 1.125 1.125 0 0 1-1.947 1.125A8.625 8.625 0 1 1 19.25 9.624Z" /></symbol><symbol viewBox="0 0 16 16" id="plus"><path d="M4 8.395V7.193c0-.048.024-.073.073-.073h2.864c.049 0 .073-.027.073-.08V4.073c0-.049.025-.073.074-.073h1.26c.053 0 .08.024.08.073V7.04c0 .053.024.08.073.08h3.032c.05 0 .073.025.073.073v1.202c0 .048-.024.073-.073.073H8.497c-.049 0-.073.024-.073.073v2.974c0 .048-.027.073-.08.073h-1.26c-.05 0-.074-.024-.074-.073V8.54c0-.049-.024-.073-.073-.073H4.073c-.049 0-.073-.025-.073-.073Z" /></symbol><symbol viewBox="0 0 256 256" id="profile"><g clip-path="url(#profile_a)"><path d="M256 255.995H0v-37.821c0-16.839 25.32-32.408 38.654-38.461 56.76-25.774 119.008-25.744 176.146-1.2 13.424 5.763 41.19 21.962 41.19 38.921v38.571l.01-.01ZM128.05 128.165c35.377 0 64.055-28.692 64.055-64.085 0-35.393-28.678-64.085-64.055-64.085-35.377 0-64.055 28.692-64.055 64.085 0 35.393 28.679 64.085 64.055 64.085Z" /></g><defs></defs></symbol><clipPath id="profile_a"><path d="M0 0h256v256H0z" /></clipPath><symbol viewBox="0 0 273 344" id="tile-scratch-01">
    <path fill="none" stroke="currentColor" stroke-linecap="round" stroke-linejoin="round" stroke-width="80" d="m0 120 273-70L0 250l273-70-143 164" />
</symbol><symbol viewBox="0 0 273 344" id="tile-scratch-02">
    <path fill="none" stroke="currentColor" stroke-linecap="round" stroke-linejoin="round" stroke-width="80" d="M53.2 29.4 273 205.8l-323.8-98.5L169 283.8l-217-16" />
</symbol><symbol viewBox="0 0 273 344" id="tile-scratch-03"><path fill="none" stroke="currentColor" stroke-linecap="round" stroke-linejoin="round" stroke-width="80" d="M194.4 0-55.1 215.4 312.4 95.1 62.9 310.6l246.3-19.5" /></symbol><symbol viewBox="0 0 273 344" id="tile-scratch-04"><path fill="none" stroke="currentColor" stroke-linecap="round" stroke-linejoin="round" stroke-width="80" d="M280 8 0 155.8l287-7.6-315.2 170.6" /></symbol><symbol viewBox="0 0 273 344" id="tile-scratch-05">
    <path fill="none" stroke="currentColor" stroke-linecap="round" stroke-linejoin="round" stroke-width="80" d="m-47-10 304 70L-7 203l294-9-176 145" />
</symbol><symbol viewBox="0 0 273 344" id="tile-scratch-06">
    <path fill="none" stroke="currentColor" stroke-linecap="round" stroke-linejoin="round" stroke-width="80" d="M280-4-20 139l265 13.5L-31 259l311 50" />
</symbol><symbol viewBox="0 0 22 22" id="youtube"><path d="M18.719 6.906c.375 1.313.375 4.125.375 4.125s0 2.781-.375 4.125a2.084 2.084 0 0 1-1.5 1.5C15.875 17 10.562 17 10.562 17s-5.343 0-6.687-.344a2.084 2.084 0 0 1-1.5-1.5C2 13.812 2 11.031 2 11.031s0-2.812.375-4.125a2.126 2.126 0 0 1 1.5-1.531C5.219 5 10.563 5 10.563 5s5.312 0 6.656.375a2.126 2.126 0 0 1 1.5 1.531Zm-9.907 6.657 4.438-2.532L8.812 8.5v5.063Z" /></symbol></defs></svg>